{
	"textures":[{
		"sampler":0,
		"source":0
	}],
	"samplers":[{
		"magFilter":9729,
		"wrapS":10497,
		"minFilter":9729,
		"wrapT":10497
	}],
	"asset":{
		"version":"2.0",
		"generator":"Created using the official Cinema 4D glTF Exporter 1.000x284978"
	},
	"scenes":[{
		"nodes":[0,
		65]
	}],
	"nodes":[{
		"name":"mixamorig:Hips",
		"translation":[0.0,
		107.41753387451172,
		-0.000004695369625551393],
		"rotation":[2.185568170887109e-8,
		0.0,
		0.0,
		-1.0],
		"scale":[1.0,
		1.0,
		1.0],
		"children":[1,
		6,
		11]
	},
	{
		"name":"mixamorig:LeftUpLeg",
		"translation":[10.242584228515625,
		-12.428050994873047,
		-0.8098867535591126],
		"rotation":[0.9999144673347473,
		-6.042611284726011e-17,
		6.042611284726011e-17,
		-0.013081133365631104],
		"scale":[1.0,
		0.9999998807907105,
		0.9994111061096191],
		"children":[2]
	},
	{
		"name":"mixamorig:LeftLeg",
		"translation":[7.450580596923828e-7,
		43.6325798034668,
		-6.938893903907228e-16],
		"rotation":[-0.006264734547585249,
		-0.023544805124402047,
		0.024197759106755258,
		-0.9994102716445923],
		"scale":[0.9999999403953552,
		1.0,
		0.9999999403953552],
		"children":[3]
	},
	{
		"name":"mixamorig:LeftFoot",
		"translation":[0.000026931302272714676,
		43.19482421875,
		-0.000003775098093683482],
		"rotation":[0.5781953930854797,
		-0.09117388725280762,
		0.12296687066555023,
		-0.801409125328064],
		"scale":[0.9999995231628418,
		0.9999991059303284,
		1.0000014305114747],
		"children":[4]
	},
	{
		"name":"mixamorig:LeftToeBase",
		"translation":[-0.0009608461987227202,
		16.37350082397461,
		0.0050505781546235088],
		"rotation":[5.435870065184645e-8,
		0.0000075699176704802088,
		-1.0822552098943561e-7,
		-1.0],
		"scale":[1.0,
		1.0,
		1.0],
		"children":[5]
	},
	{
		"name":"mixamorig:LeftToeBase_end",
		"translation":[-0.00017618753190618008,
		3.000000476837158,
		0.0009254515171051025],
		"rotation":[0.0,
		0.0,
		0.0,
		-1.0],
		"scale":[1.0,
		1.0,
		1.0]
	},
	{
		"name":"mixamorig:RightUpLeg",
		"translation":[-10.960777282714844,
		-12.428050994873047,
		-0.3464471399784088],
		"rotation":[0.9999662637710571,
		-6.07271139460008e-17,
		6.07271139460008e-17,
		-0.00821719877421856],
		"scale":[1.0,
		1.0,
		1.000287413597107],
		"children":[7]
	},
	{
		"name":"mixamorig:RightLeg",
		"translation":[0.0,
		43.68165588378906,
		0.0],
		"rotation":[-0.012023471295833588,
		0.015060679987072945,
		-0.015301366336643696,
		-0.999697208404541],
		"scale":[0.9999999403953552,
		1.0,
		0.9999998807907105],
		"children":[8]
	},
	{
		"name":"mixamorig:RightFoot",
		"translation":[0.00001909757156681735,
		43.26993942260742,
		0.0000016713803461243515],
		"rotation":[0.5771562457084656,
		0.1256534308195114,
		-0.14873120188713075,
		-0.793083131313324],
		"scale":[1.0000007152557374,
		0.9999977946281433,
		1.0000015497207642],
		"children":[9]
	},
	{
		"name":"mixamorig:RightToeBase",
		"translation":[-0.0006477461429312825,
		18.311445236206056,
		-0.002775523578748107],
		"rotation":[-9.26854859528703e-9,
		-0.000004203758635412669,
		-6.277974762269878e-8,
		1.0],
		"scale":[1.0,
		0.9999998807907105,
		0.9999999403953552],
		"children":[10]
	},
	{
		"name":"mixamorig:RightToeBase_end",
		"translation":[-0.000105805549537763,
		2.999999523162842,
		-0.0004546424315776676],
		"rotation":[0.0,
		-5.293955920339377e-23,
		0.0,
		-1.0],
		"scale":[1.0,
		1.0,
		1.0]
	},
	{
		"name":"mixamorig:Spine",
		"translation":[0.0,
		12.759769439697266,
		0.0],
		"rotation":[0.025034263730049135,
		-0.01740940473973751,
		-0.017409399151802064,
		0.9993833899497986],
		"scale":[1.0,
		1.0,
		1.0],
		"children":[12]
	},
	{
		"name":"mixamorig:Spine1",
		"translation":[1.4988472685217858e-7,
		12.783546447753907,
		2.1391315385699273e-7],
		"rotation":[-0.025034258142113687,
		0.01740940846502781,
		0.017409399151802064,
		0.9993833899497986],
		"scale":[0.9999999403953552,
		0.9999999403953552,
		1.0],
		"children":[13]
	},
	{
		"name":"mixamorig:Spine2",
		"translation":[-8.655471894769562e-9,
		10.175633430480957,
		2.9287605229910697e-8],
		"rotation":[-0.08692419528961182,
		0.014762142673134804,
		0.014762142673134804,
		0.9959961771965027],
		"scale":[1.0,
		1.0,
		0.9999999403953552],
		"children":[14,
		17,
		41]
	},
	{
		"name":"mixamorig:Neck",
		"translation":[-4.181362953659118e-7,
		19.14100456237793,
		0.0000015880337969065295],
		"rotation":[0.12467856705188751,
		-0.015312005765736103,
		-0.014190996065735817,
		0.9919775128364563],
		"scale":[0.9999998211860657,
		0.9999998807907105,
		0.9999998807907105],
		"children":[15]
	},
	{
		"name":"mixamorig:Head",
		"translation":[-1.3929990494432332e-8,
		8.768321990966797,
		-1.8829729242497707e-7],
		"rotation":[-0.004650572780519724,
		-0.0031992143485695125,
		-0.0029649962671101095,
		0.9999796748161316],
		"scale":[1.0,
		0.9999999403953552,
		1.0],
		"children":[16]
	},
	{
		"name":"mixamorig:Head_end",
		"translation":[-4.676642717527102e-8,
		29.91722297668457,
		-2.3661490544668597e-9],
		"rotation":[-6.938893903907229e-18,
		0.0,
		0.0,
		-1.0],
		"scale":[1.0,
		1.0,
		1.0]
	},
	{
		"name":"mixamorig:LeftShoulder",
		"translation":[5.509357452392578,
		18.325651168823243,
		3.772193193435669],
		"rotation":[0.6125699877738953,
		0.337176650762558,
		0.4215521514415741,
		-0.5773765444755554],
		"scale":[0.9999999403953552,
		1.0,
		0.9999998807907105],
		"children":[18]
	},
	{
		"name":"mixamorig:LeftArm",
		"translation":[0.0000022416334104491399,
		19.786396026611329,
		-0.00001256642735825153],
		"rotation":[-0.03461847081780434,
		-0.0474567636847496,
		0.240142360329628,
		-0.9689587354660034],
		"scale":[0.9999998211860657,
		0.9999999403953552,
		0.9999998807907105],
		"children":[19]
	},
	{
		"name":"mixamorig:LeftForeArm",
		"translation":[-0.0000026010418423538796,
		27.732912063598634,
		-0.000005160095497558359],
		"rotation":[-0.020371384918689729,
		-0.02108278125524521,
		0.00056088762357831,
		-0.9995700120925903],
		"scale":[0.9999999403953552,
		1.0,
		1.0],
		"children":[20]
	},
	{
		"name":"mixamorig:LeftHand",
		"translation":[-0.0000017392929976267624,
		27.5886173248291,
		-0.000020577610484906473],
		"rotation":[0.014932992868125439,
		0.015810443088412286,
		-0.055728863924741748,
		-0.9982090592384338],
		"scale":[0.9999999403953552,
		0.9999999403953552,
		0.9999999403953552],
		"children":[21,
		25,
		29,
		33,
		37]
	},
	{
		"name":"mixamorig:LeftHandIndex1",
		"translation":[2.8370110988616945,
		10.224174499511719,
		-0.9642849564552307],
		"rotation":[-0.08219548314809799,
		-0.07859386503696442,
		0.07074379920959473,
		-0.9909905195236206],
		"scale":[0.9999999403953552,
		1.0,
		1.0],
		"children":[22]
	},
	{
		"name":"mixamorig:LeftHandIndex2",
		"translation":[-0.0000016787274716989487,
		3.420562744140625,
		-0.000010483777259651106],
		"rotation":[0.10051070153713227,
		0.09732212126255036,
		-0.0770646333694458,
		-0.9871610999107361],
		"scale":[1.0,
		1.0,
		1.0],
		"children":[23]
	},
	{
		"name":"mixamorig:LeftHandIndex3",
		"translation":[4.1667468053674386e-7,
		2.451498031616211,
		-0.0000014901987697157893],
		"rotation":[0.07964437454938889,
		0.07257689535617829,
		0.0025335855316370727,
		0.9941744804382324],
		"scale":[1.0000001192092896,
		1.0,
		1.0],
		"children":[24]
	},
	{
		"name":"mixamorig:LeftHandIndex3_end",
		"translation":[7.675339475099463e-8,
		2.7848546504974367,
		-3.7144002362765607e-7],
		"rotation":[8.881784197001253e-16,
		0.0,
		0.0,
		-1.0],
		"scale":[1.0,
		1.0,
		1.0]
	},
	{
		"name":"mixamorig:LeftHandMiddle1",
		"translation":[3.45835758253088e-7,
		11.294049263000489,
		-0.000004542159331322182],
		"rotation":[-0.07474622130393982,
		-0.06963186711072922,
		0.012860280461609364,
		-0.9946854114532471],
		"scale":[1.0,
		1.0,
		1.0],
		"children":[26]
	},
	{
		"name":"mixamorig:LeftHandMiddle2",
		"translation":[7.176369081207668e-7,
		3.396106481552124,
		-0.000008298537068185397],
		"rotation":[0.06836093962192536,
		0.06418865919113159,
		-0.006958646699786186,
		-0.9955692887306213],
		"scale":[1.0000001192092896,
		1.0,
		0.9999999403953552],
		"children":[27]
	},
	{
		"name":"mixamorig:LeftHandMiddle3",
		"translation":[3.5352843497094e-7,
		2.6183149814605715,
		0.000014461398677667603],
		"rotation":[0.05367310717701912,
		0.05000052601099014,
		0.010805031284689904,
		0.9972473978996277],
		"scale":[0.9999998807907105,
		1.0,
		1.0],
		"children":[28]
	},
	{
		"name":"mixamorig:LeftHandMiddle3_end",
		"translation":[8.807071516514498e-9,
		2.9279837608337404,
		-5.726971039621276e-7],
		"rotation":[8.881784197001253e-16,
		-3.308722450212111e-24,
		0.0,
		-1.0],
		"scale":[1.0,
		1.0,
		1.0]
	},
	{
		"name":"mixamorig:LeftHandPinky1",
		"translation":[-5.094958782196045,
		9.756567001342774,
		-0.14537377655506135],
		"rotation":[0.06751585006713867,
		0.058756355196237567,
		0.10425127297639847,
		0.9905155301094055],
		"scale":[1.0000001192092896,
		1.0000001192092896,
		0.9999999403953552],
		"children":[30]
	},
	{
		"name":"mixamorig:LeftHandPinky2",
		"translation":[9.529255748930154e-7,
		2.3588619232177736,
		-0.000017390153516316788],
		"rotation":[-0.0068525345996022228,
		-0.014366330578923226,
		-0.11640965938568115,
		0.9930737614631653],
		"scale":[1.0,
		1.0,
		1.0],
		"children":[31]
	},
	{
		"name":"mixamorig:LeftHandPinky3",
		"translation":[-0.000001138735228778387,
		2.2384040355682375,
		-0.00000857894974615192],
		"rotation":[0.0062926458194851879,
		-0.00006231237057363614,
		-0.08926695585250855,
		0.9959878325462341],
		"scale":[0.9999998807907105,
		1.0,
		0.9999999403953552],
		"children":[32]
	},
	{
		"name":"mixamorig:LeftHandPinky3_end",
		"translation":[-1.9775625048623625e-7,
		2.373901128768921,
		3.9681091834609108e-7],
		"rotation":[0.0,
		-1.2246468525851679e-16,
		0.0,
		1.0],
		"scale":[1.0,
		1.0,
		1.0]
	},
	{
		"name":"mixamorig:LeftHandRing1",
		"translation":[-3.083760976791382,
		10.597155570983887,
		0.14967134594917298],
		"rotation":[-0.08891402930021286,
		-0.08325470238924027,
		0.02717575803399086,
		-0.992181658744812],
		"scale":[1.0,
		1.0,
		1.0],
		"children":[34]
	},
	{
		"name":"mixamorig:LeftHandRing2",
		"translation":[-0.000005273009719530819,
		3.123687505722046,
		-0.000005984806193737313],
		"rotation":[0.05747043713927269,
		0.054848089814186099,
		-0.009865794330835343,
		-0.9967905879020691],
		"scale":[1.0,
		0.9999999403953552,
		0.9999998807907105],
		"children":[35]
	},
	{
		"name":"mixamorig:LeftHandRing3",
		"translation":[0.0000018204169691671269,
		2.6773431301116945,
		0.000006407115051842993],
		"rotation":[-0.0389106385409832,
		-0.0365811362862587,
		0.031107958406209947,
		-0.9980882406234741],
		"scale":[1.0000001192092896,
		1.0,
		0.9999999403953552],
		"children":[36]
	},
	{
		"name":"mixamorig:LeftHandRing3_end",
		"translation":[-8.323699773882254e-8,
		2.7644033432006838,
		8.576525942771696e-7],
		"rotation":[8.881784197001253e-16,
		0.0,
		0.0,
		-1.0],
		"scale":[1.0,
		1.0,
		1.0]
	},
	{
		"name":"mixamorig:LeftHandThumb1",
		"translation":[2.790659189224243,
		3.900026559829712,
		-3.140265941619873],
		"rotation":[-0.2945592999458313,
		-0.25971660017967226,
		-0.36041760444641116,
		0.8460976481437683],
		"scale":[1.0,
		1.0,
		1.0],
		"children":[38]
	},
	{
		"name":"mixamorig:LeftHandThumb2",
		"translation":[0.000004422689926286694,
		3.253467321395874,
		-7.815711455805285e-7],
		"rotation":[-0.10332243144512177,
		0.0931914895772934,
		-0.2901366055011749,
		-0.9468160271644592],
		"scale":[1.0,
		1.0000001192092896,
		1.0],
		"children":[39]
	},
	{
		"name":"mixamorig:LeftHandThumb3",
		"translation":[4.674637921198155e-7,
		3.0787105560302736,
		0.000004643113697966328],
		"rotation":[-0.03036622516810894,
		-0.07933804392814636,
		0.07109078764915467,
		-0.9938458204269409],
		"scale":[1.0,
		0.9999998211860657,
		1.0],
		"children":[40]
	},
	{
		"name":"mixamorig:LeftHandThumb3_end",
		"translation":[-1.3718970137688303e-7,
		3.514846086502075,
		1.1970475100042678e-7],
		"rotation":[4.440892098500626e-16,
		-2.7755575615628916e-17,
		-1.232595164407831e-32,
		-1.0],
		"scale":[1.0,
		1.0,
		1.0]
	},
	{
		"name":"mixamorig:RightShoulder",
		"translation":[-6.409606456756592,
		18.839460372924806,
		2.701157331466675],
		"rotation":[0.6246792674064636,
		-0.36495137214660647,
		-0.4144558608531952,
		-0.5520983934402466],
		"scale":[0.9999998807907105,
		0.9999999403953552,
		0.9999998807907105],
		"children":[42]
	},
	{
		"name":"mixamorig:RightArm",
		"translation":[-4.7667137437201747e-7,
		16.58559226989746,
		0.000010765144907054492],
		"rotation":[-0.07137482613325119,
		0.07357126474380493,
		-0.15099723637104035,
		-0.9832053184509277],
		"scale":[1.0,
		1.0,
		0.9999998211860657],
		"children":[43]
	},
	{
		"name":"mixamorig:RightForeArm",
		"translation":[6.405731483027921e-7,
		29.12755012512207,
		-0.0000033798512504290558],
		"rotation":[-0.014304419979453087,
		0.013543566688895226,
		-0.0003805996384471655,
		-0.9998058676719666],
		"scale":[1.0,
		1.0,
		0.9999999403953552],
		"children":[44]
	},
	{
		"name":"mixamorig:RightHand",
		"translation":[0.0000013227107729107957,
		27.198102951049806,
		-0.000005679839432559675],
		"rotation":[0.03241636976599693,
		-0.031090039759874345,
		0.03130536153912544,
		-0.9985001683235169],
		"scale":[1.0,
		1.0,
		1.0],
		"children":[45,
		49,
		53,
		57,
		61]
	},
	{
		"name":"mixamorig:RightHandIndex1",
		"translation":[-2.829578399658203,
		10.779878616333008,
		-0.6780303120613098],
		"rotation":[-0.08739616721868515,
		0.08176484704017639,
		-0.05619128793478012,
		-0.9912209510803223],
		"scale":[1.0,
		1.0,
		0.9999998807907105],
		"children":[46]
	},
	{
		"name":"mixamorig:RightHandIndex2",
		"translation":[-0.000002526592425056151,
		3.4899110794067385,
		-0.000017440945157431999],
		"rotation":[0.09634146094322205,
		-0.09059057384729386,
		0.05701221898198128,
		-0.9895763397216797],
		"scale":[0.9999999403953552,
		1.0,
		0.9999999403953552],
		"children":[47]
	},
	{
		"name":"mixamorig:RightHandIndex3",
		"translation":[-7.14497559783922e-7,
		2.5351545810699465,
		0.000001749484681567992],
		"rotation":[0.07601622492074967,
		-0.06617283076047898,
		-0.014083623886108399,
		0.9948086738586426],
		"scale":[1.0,
		0.9999999403953552,
		1.0000001192092896],
		"children":[48]
	},
	{
		"name":"mixamorig:RightHandIndex3_end",
		"translation":[3.124853620306567e-8,
		2.8484411239624025,
		-3.342374270687287e-7],
		"rotation":[-6.617444900424222e-24,
		0.0,
		0.0,
		-1.0],
		"scale":[1.0,
		1.0,
		1.0]
	},
	{
		"name":"mixamorig:RightHandMiddle1",
		"translation":[0.000001000528754957486,
		11.976030349731446,
		-0.000011301845916023013],
		"rotation":[-0.07549397647380829,
		0.06949462741613388,
		-0.0329677015542984,
		-0.9941751956939697],
		"scale":[0.9999999403953552,
		1.0,
		0.9999997615814209],
		"children":[50]
	},
	{
		"name":"mixamorig:RightHandMiddle2",
		"translation":[0.0000015708313867435209,
		3.5769827365875246,
		0.0000020793006569874707],
		"rotation":[0.06457483768463135,
		-0.061442311853170398,
		-0.001737925224006176,
		-0.9960180521011353],
		"scale":[1.0000001192092896,
		1.0000001192092896,
		1.0],
		"children":[51]
	},
	{
		"name":"mixamorig:RightHandMiddle3",
		"translation":[-6.842849415988894e-7,
		2.6891815662384035,
		-0.0000012841693433074398],
		"rotation":[0.11028861254453659,
		-0.10392612218856812,
		-0.020889045670628549,
		0.9882304668426514],
		"scale":[0.9999999403953552,
		1.0000001192092896,
		1.0000001192092896],
		"children":[52]
	},
	{
		"name":"mixamorig:RightHandMiddle3_end",
		"translation":[-4.146011889361034e-8,
		3.0886800289154054,
		-0.0000014057370663067559],
		"rotation":[0.0,
		0.0,
		0.0,
		-1.0],
		"scale":[1.0,
		1.0,
		1.0]
	},
	{
		"name":"mixamorig:RightHandPinky1",
		"translation":[5.075137615203857,
		10.400284767150879,
		-0.5426362752914429],
		"rotation":[0.0678386241197586,
		-0.05447941645979881,
		-0.07971332967281342,
		0.9930134415626526],
		"scale":[1.0,
		0.9999999403953552,
		0.9999998807907105],
		"children":[54]
	},
	{
		"name":"mixamorig:RightHandPinky2",
		"translation":[7.53244819406973e-7,
		2.6266515254974367,
		0.000013683530596608762],
		"rotation":[-0.0107418242841959,
		0.011626259423792363,
		0.08567608892917633,
		0.9961972832679749],
		"scale":[1.0,
		1.0,
		1.0],
		"children":[55]
	},
	{
		"name":"mixamorig:RightHandPinky3",
		"translation":[3.760547144793236e-7,
		2.3076610565185549,
		0.000009020112884172704],
		"rotation":[-0.01530157495290041,
		0.011757821775972844,
		-0.0872722640633583,
		-0.9959975481033325],
		"scale":[0.9999999403953552,
		1.0,
		1.0],
		"children":[56]
	},
	{
		"name":"mixamorig:RightHandPinky3_end",
		"translation":[-9.522183042065535e-9,
		2.3755555152893068,
		5.993692298034148e-7],
		"rotation":[0.0,
		0.0,
		0.0,
		-1.0],
		"scale":[1.0,
		1.0,
		1.0]
	},
	{
		"name":"mixamorig:RightHandRing1",
		"translation":[3.094832181930542,
		11.242732048034668,
		-0.11611500382423401],
		"rotation":[-0.0920608639717102,
		0.08363933861255646,
		-0.02503117173910141,
		-0.991918683052063],
		"scale":[0.9999999403953552,
		0.9999999403953552,
		0.9999998807907105],
		"children":[58]
	},
	{
		"name":"mixamorig:RightHandRing2",
		"translation":[0.0000030364810754690554,
		3.2853190898895265,
		-0.00000393820482713636],
		"rotation":[0.05818717181682587,
		-0.05387091636657715,
		0.005376690533012152,
		-0.9968366026878357],
		"scale":[0.9999999403953552,
		0.9999998807907105,
		1.0],
		"children":[59]
	},
	{
		"name":"mixamorig:RightHandRing3",
		"translation":[0.0000013700635008717655,
		2.7094662189483644,
		-0.00000219496928366425],
		"rotation":[-0.040773846209049228,
		0.037964314222335818,
		-0.02113843522965908,
		-0.9982231259346008],
		"scale":[0.9999999403953552,
		1.0,
		0.9999999403953552],
		"children":[60]
	},
	{
		"name":"mixamorig:RightHandRing3_end",
		"translation":[5.58875683509541e-8,
		2.774219036102295,
		2.5535470626891767e-7],
		"rotation":[0.0,
		0.0,
		0.0,
		-1.0],
		"scale":[1.0,
		1.0,
		1.0]
	},
	{
		"name":"mixamorig:RightHandThumb1",
		"translation":[-2.981417655944824,
		4.076101303100586,
		-2.7683374881744386],
		"rotation":[-0.13001888990402223,
		0.08661771565675736,
		0.39698806405067446,
		0.9044296145439148],
		"scale":[1.0,
		1.0,
		1.0],
		"children":[62]
	},
	{
		"name":"mixamorig:RightHandThumb2",
		"translation":[-0.000004209076450933935,
		3.1586387157440187,
		-0.000016007168596843259],
		"rotation":[0.01783187873661518,
		-0.18573062121868134,
		0.2909183204174042,
		-0.9383776783943176],
		"scale":[0.9999999403953552,
		1.0,
		1.0],
		"children":[63]
	},
	{
		"name":"mixamorig:RightHandThumb3",
		"translation":[0.000006098927769926377,
		3.0801024436950685,
		-0.000007019077656877926],
		"rotation":[-0.004454670939594507,
		0.07267142832279206,
		-0.11854884028434754,
		-0.9902753233909607],
		"scale":[1.0,
		1.0,
		0.9999999403953552],
		"children":[64]
	},
	{
		"name":"mixamorig:RightHandThumb3_end",
		"translation":[-9.430571878965566e-8,
		3.848351240158081,
		-4.97181474656827e-7],
		"rotation":[0.0,
		0.0,
		0.0,
		-1.0],
		"scale":[1.0,
		1.0,
		1.0]
	},
	{
		"name":"model_T",
		"translation":[0.0,
		0.0,
		0.0],
		"rotation":[1.5695823663008924e-7,
		0.0,
		0.0,
		-1.0],
		"scale":[1.0,
		1.0,
		1.0],
		"children":[66]
	},
	{
		"name":"model_T",
		"mesh":0,
		"skin":0
	}],
	"meshes":[{
		"name":"model_T",
		"primitives":[{
			"attributes":{
				"POSITION":1,
				"NORMAL":2,
				"TEXCOORD_0":3,
				"JOINTS_0":4,
				"WEIGHTS_0":5
			},
			"indices":0,
			"material":0
		}]
	}],
	"skins":[{
		"inverseBindMatrices":6,
		"joints":[0,
		1,
		2,
		3,
		4,
		6,
		7,
		8,
		9,
		11,
		12,
		13,
		14,
		15,
		17,
		18,
		19,
		20,
		21,
		22,
		23,
		25,
		26,
		27,
		29,
		30,
		31,
		33,
		34,
		35,
		37,
		38,
		39,
		41,
		42,
		43,
		44,
		45,
		46,
		47,
		49,
		50,
		51,
		53,
		54,
		55,
		57,
		58,
		59,
		61,
		62,
		63]
	}],
	"accessors":[{
		"bufferView":0,
		"max":[9985],
		"type":"SCALAR",
		"componentType":5123,
		"count":54660,
		"min":[0],
		"byteOffset":0
	},
	{
		"bufferView":1,
		"max":[98.56896209716797,
		201.55238342285157,
		25.949129104614259],
		"type":"VEC3",
		"componentType":5126,
		"count":9986,
		"min":[-99.09977722167969,
		0.0018223820952698589,
		-24.20326042175293],
		"byteOffset":0
	},
	{
		"bufferView":1,
		"max":[0.9998626112937927,
		0.99985671043396,
		0.9998430013656616],
		"type":"VEC3",
		"componentType":5126,
		"count":9986,
		"min":[-0.9999507665634155,
		-0.9998305439949036,
		-0.9999536275863648],
		"byteOffset":12
	},
	{
		"bufferView":1,
		"max":[0.9964039921760559,
		-0.003527045249938965],
		"type":"VEC2",
		"componentType":5126,
		"count":9986,
		"min":[0.0035039999056607486,
		-0.9961559772491455],
		"byteOffset":24
	},
	{
		"bufferView":2,
		"max":[51,
		51,
		51,
		50],
		"type":"VEC4",
		"componentType":5123,
		"count":9986,
		"min":[0,
		0,
		0,
		0],
		"byteOffset":0
	},
	{
		"bufferView":3,
		"max":[1.0,
		0.49996185302734377,
		0.3187914788722992,
		0.2074006199836731],
		"type":"VEC4",
		"componentType":5126,
		"count":9986,
		"min":[0.21863126754760743,
		0.0,
		0.0,
		0.0],
		"byteOffset":0
	},
	{
		"bufferView":4,
		"max":[1.000000238418579,
		0.9993975758552551,
		0.6900461316108704,
		0.0,
		0.690045952796936,
		1.0,
		0.9999602437019348,
		0.0,
		0.9993977546691895,
		0.9425866603851318,
		1.0,
		0.0,
		79.14888000488281,
		94.97096252441406,
		14.940680503845215,
		1.0],
		"type":"MAT4",
		"componentType":5126,
		"count":52,
		"min":[-0.5895488262176514,
		-0.9983981847763062,
		-0.4956892132759094,
		0.0,
		-0.49568867683410647,
		-0.999864935874939,
		-0.8768075704574585,
		0.0,
		-0.9983982443809509,
		-0.42699533700942995,
		-1.0002467632293702,
		0.0,
		-99.351318359375,
		-170.18304443359376,
		-171.9187774658203,
		1.0],
		"byteOffset":0
	}],
	"bufferViews":[{
		"buffer":0,
		"byteOffset":0,
		"byteLength":109320,
		"target":34963
	},
	{
		"buffer":0,
		"byteOffset":109320,
		"byteLength":319552,
		"target":34962,
		"byteStride":32
	},
	{
		"buffer":0,
		"byteOffset":428872,
		"byteLength":79888,
		"target":34962
	},
	{
		"buffer":0,
		"byteOffset":508760,
		"byteLength":159776,
		"target":34962
	},
	{
		"buffer":1,
		"byteOffset":0,
		"byteLength":3328
	}],
	"buffers":[{
		"byteLength":668536,
		"uri":"data:application/octet-stream;base64,"
	},
	{
		"byteLength":3328,
		"uri":"data:application/octet-stream;base64,"
	}],
	"images":[{
		"uri":"data:image/jpeg;base64,"
	}],
	"materials":[{
		"pbrMetallicRoughness":{
			"baseColorTexture":{
				"index":0
			},
			"baseColorFactor":[0.800000011920929,
			0.800000011920929,
			0.800000011920929,
			1.0],
			"metallicFactor":1.0,
			"roughnessFactor":1.0
		},
		"emissiveFactor":[0.0,
		0.0,
		0.0],
		"alphaMode":"OPAQUE",
		"doubleSided":true,
		"name":"New_Mat"
	}]
}